<mxfile host="app.diagrams.net" agent="Mozilla/5.0 (Windows NT 10.0; Win64; x64) AppleWebKit/537.36 (KHTML, like Gecko) Chrome/136.0.0.0 Safari/537.36" scale="1" border="0" version="26.2.14">
  <diagram name="Page-1" id="e7e014a7-5840-1c2e-5031-d8a46d1fe8dd">
    <mxGraphModel dx="2329" dy="1084" grid="1" gridSize="10" guides="1" tooltips="1" connect="1" arrows="1" fold="1" page="1" pageScale="1" pageWidth="1169" pageHeight="826" background="none" math="0" shadow="0">
      <root>
        <mxCell id="0" />
        <mxCell id="1" parent="0" />
        <mxCell id="2" value="Tenant" style="swimlane;whiteSpace=wrap" parent="1" vertex="1">
          <mxGeometry x="30" y="120" width="280" height="570" as="geometry" />
        </mxCell>
        <mxCell id="5mifilfR7spXnIjcyNQS-44" style="edgeStyle=orthogonalEdgeStyle;rounded=0;orthogonalLoop=1;jettySize=auto;html=1;exitX=0.5;exitY=1;exitDx=0;exitDy=0;" parent="2" source="5" target="5mifilfR7spXnIjcyNQS-41" edge="1">
          <mxGeometry relative="1" as="geometry" />
        </mxCell>
        <mxCell id="5" value="" style="ellipse;shape=startState;fillColor=#000000;strokeColor=#ff0000;" parent="2" vertex="1">
          <mxGeometry x="100" y="40" width="30" height="30" as="geometry" />
        </mxCell>
        <mxCell id="5mifilfR7spXnIjcyNQS-41" value="Logs in and accesses messaging" style="rounded=1;whiteSpace=wrap;html=1;arcSize=40;fontColor=#000000;fillColor=#ffffc0;strokeColor=#ff0000;" parent="2" vertex="1">
          <mxGeometry x="55" y="90" width="120" height="35" as="geometry" />
        </mxCell>
        <mxCell id="5mifilfR7spXnIjcyNQS-42" value="" style="edgeStyle=orthogonalEdgeStyle;html=1;verticalAlign=bottom;endArrow=open;endSize=8;strokeColor=#ff0000;rounded=0;" parent="2" source="5mifilfR7spXnIjcyNQS-41" edge="1">
          <mxGeometry relative="1" as="geometry">
            <mxPoint x="115" y="185" as="targetPoint" />
          </mxGeometry>
        </mxCell>
        <mxCell id="5mifilfR7spXnIjcyNQS-45" value="Composes and sends message" style="rounded=1;whiteSpace=wrap;html=1;arcSize=40;fontColor=#000000;fillColor=#ffffc0;strokeColor=#ff0000;" parent="2" vertex="1">
          <mxGeometry x="55" y="185" width="120" height="40" as="geometry" />
        </mxCell>
        <mxCell id="5mifilfR7spXnIjcyNQS-55" value="Gets response" style="rounded=1;whiteSpace=wrap;html=1;arcSize=40;fontColor=#000000;fillColor=#ffffc0;strokeColor=#ff0000;" parent="2" vertex="1">
          <mxGeometry x="55" y="285" width="120" height="40" as="geometry" />
        </mxCell>
        <mxCell id="5mifilfR7spXnIjcyNQS-56" value="" style="edgeStyle=orthogonalEdgeStyle;html=1;verticalAlign=bottom;endArrow=open;endSize=8;strokeColor=#ff0000;rounded=0;" parent="2" source="5mifilfR7spXnIjcyNQS-55" edge="1">
          <mxGeometry relative="1" as="geometry">
            <mxPoint x="115" y="385" as="targetPoint" />
          </mxGeometry>
        </mxCell>
        <mxCell id="r1D-2E0lFHsrmDZQRphq-22" style="edgeStyle=orthogonalEdgeStyle;rounded=0;orthogonalLoop=1;jettySize=auto;html=1;exitX=0;exitY=0.5;exitDx=0;exitDy=0;entryX=0;entryY=0.5;entryDx=0;entryDy=0;strokeColor=#FF3737;" edge="1" parent="2" source="5mifilfR7spXnIjcyNQS-57" target="5mifilfR7spXnIjcyNQS-45">
          <mxGeometry relative="1" as="geometry" />
        </mxCell>
        <mxCell id="r1D-2E0lFHsrmDZQRphq-23" value="No" style="edgeLabel;html=1;align=center;verticalAlign=middle;resizable=0;points=[];" vertex="1" connectable="0" parent="r1D-2E0lFHsrmDZQRphq-22">
          <mxGeometry x="-0.3819" y="-7" relative="1" as="geometry">
            <mxPoint as="offset" />
          </mxGeometry>
        </mxCell>
        <mxCell id="5mifilfR7spXnIjcyNQS-57" value="Is issue resolved?" style="rhombus;whiteSpace=wrap;html=1;fontColor=#000000;fillColor=#ffffc0;strokeColor=#ff0000;" parent="2" vertex="1">
          <mxGeometry x="42.75" y="382" width="144.5" height="40" as="geometry" />
        </mxCell>
        <mxCell id="5mifilfR7spXnIjcyNQS-59" value="yes" style="edgeStyle=orthogonalEdgeStyle;html=1;align=left;verticalAlign=top;endArrow=open;endSize=8;strokeColor=#ff0000;rounded=0;" parent="2" source="5mifilfR7spXnIjcyNQS-57" edge="1">
          <mxGeometry x="-0.4099" y="15" relative="1" as="geometry">
            <mxPoint x="115.5" y="482" as="targetPoint" />
            <mxPoint y="1" as="offset" />
          </mxGeometry>
        </mxCell>
        <mxCell id="5mifilfR7spXnIjcyNQS-62" value="Close conversation" style="rounded=1;whiteSpace=wrap;html=1;arcSize=40;fontColor=#000000;fillColor=#ffffc0;strokeColor=#ff0000;" parent="2" vertex="1">
          <mxGeometry x="55" y="482" width="120" height="40" as="geometry" />
        </mxCell>
        <mxCell id="5mifilfR7spXnIjcyNQS-63" value="" style="edgeStyle=orthogonalEdgeStyle;html=1;verticalAlign=bottom;endArrow=open;endSize=8;strokeColor=#ff0000;rounded=0;entryX=0.5;entryY=1;entryDx=0;entryDy=0;" parent="2" source="5mifilfR7spXnIjcyNQS-62" target="5mifilfR7spXnIjcyNQS-64" edge="1">
          <mxGeometry relative="1" as="geometry">
            <mxPoint x="115" y="582" as="targetPoint" />
            <Array as="points">
              <mxPoint x="240" y="502" />
            </Array>
          </mxGeometry>
        </mxCell>
        <mxCell id="5mifilfR7spXnIjcyNQS-64" value="" style="ellipse;html=1;shape=endState;fillColor=#000000;strokeColor=#ff0000;" parent="2" vertex="1">
          <mxGeometry x="225.5" y="452" width="30" height="30" as="geometry" />
        </mxCell>
        <mxCell id="3" value="Messaging Platform" style="swimlane;whiteSpace=wrap" parent="1" vertex="1">
          <mxGeometry x="310" y="120" width="280" height="570" as="geometry" />
        </mxCell>
        <mxCell id="5mifilfR7spXnIjcyNQS-47" value="&lt;em data-end=&quot;708&quot; data-start=&quot;691&quot;&gt;Receives message&lt;/em&gt;" style="rounded=1;whiteSpace=wrap;html=1;arcSize=40;fontColor=#000000;fillColor=#ffffc0;strokeColor=#ff0000;" parent="3" vertex="1">
          <mxGeometry x="80.5" y="70" width="120" height="40" as="geometry" />
        </mxCell>
        <mxCell id="5mifilfR7spXnIjcyNQS-53" value="Forward the response" style="rounded=1;whiteSpace=wrap;html=1;arcSize=40;fontColor=#000000;fillColor=#ffffc0;strokeColor=#ff0000;" parent="3" vertex="1">
          <mxGeometry x="80.5" y="285" width="120" height="40" as="geometry" />
        </mxCell>
        <mxCell id="4" value="Landlord/Property Manager" style="swimlane;whiteSpace=wrap" parent="1" vertex="1">
          <mxGeometry x="590" y="120" width="280" height="570" as="geometry" />
        </mxCell>
        <mxCell id="5mifilfR7spXnIjcyNQS-49" value="Receives a message and reads it" style="rounded=1;whiteSpace=wrap;html=1;arcSize=40;fontColor=#000000;fillColor=#ffffc0;strokeColor=#ff0000;" parent="4" vertex="1">
          <mxGeometry x="80" y="70" width="120" height="40" as="geometry" />
        </mxCell>
        <mxCell id="5mifilfR7spXnIjcyNQS-50" value="" style="edgeStyle=orthogonalEdgeStyle;html=1;verticalAlign=bottom;endArrow=open;endSize=8;strokeColor=#ff0000;rounded=0;" parent="4" source="5mifilfR7spXnIjcyNQS-49" edge="1">
          <mxGeometry relative="1" as="geometry">
            <mxPoint x="140" y="170" as="targetPoint" />
          </mxGeometry>
        </mxCell>
        <mxCell id="r1D-2E0lFHsrmDZQRphq-12" value="Can this be solved directly?" style="rhombus;whiteSpace=wrap;html=1;fontColor=#000000;fillColor=#ffffc0;strokeColor=#ff0000;" vertex="1" parent="4">
          <mxGeometry x="65" y="170" width="150" height="80" as="geometry" />
        </mxCell>
        <mxCell id="r1D-2E0lFHsrmDZQRphq-20" value="" style="edgeStyle=orthogonalEdgeStyle;html=1;verticalAlign=bottom;endArrow=open;endSize=8;strokeColor=#ff0000;rounded=0;entryX=1;entryY=0.5;entryDx=0;entryDy=0;" edge="1" parent="4" target="5mifilfR7spXnIjcyNQS-53">
          <mxGeometry relative="1" as="geometry">
            <mxPoint x="-70" y="311" as="targetPoint" />
            <mxPoint x="369.5" y="276" as="sourcePoint" />
          </mxGeometry>
        </mxCell>
        <mxCell id="5mifilfR7spXnIjcyNQS-46" value="" style="edgeStyle=orthogonalEdgeStyle;html=1;verticalAlign=bottom;endArrow=open;endSize=8;strokeColor=#ff0000;rounded=0;entryX=0;entryY=0.75;entryDx=0;entryDy=0;" parent="1" source="5mifilfR7spXnIjcyNQS-45" target="5mifilfR7spXnIjcyNQS-47" edge="1">
          <mxGeometry relative="1" as="geometry">
            <mxPoint x="279.5" y="413" as="targetPoint" />
            <Array as="points">
              <mxPoint x="380" y="330" />
              <mxPoint x="380" y="220" />
            </Array>
          </mxGeometry>
        </mxCell>
        <mxCell id="5mifilfR7spXnIjcyNQS-54" value="" style="edgeStyle=orthogonalEdgeStyle;html=1;verticalAlign=bottom;endArrow=open;endSize=8;strokeColor=#ff0000;rounded=0;entryX=1;entryY=0.5;entryDx=0;entryDy=0;" parent="1" source="5mifilfR7spXnIjcyNQS-53" target="5mifilfR7spXnIjcyNQS-55" edge="1">
          <mxGeometry relative="1" as="geometry">
            <mxPoint x="580" y="460" as="targetPoint" />
          </mxGeometry>
        </mxCell>
        <mxCell id="r1D-2E0lFHsrmDZQRphq-5" value="Support Staff" style="swimlane;whiteSpace=wrap" vertex="1" parent="1">
          <mxGeometry x="870" y="120" width="280" height="570" as="geometry" />
        </mxCell>
        <mxCell id="r1D-2E0lFHsrmDZQRphq-6" value="Receives escalated message" style="rounded=1;whiteSpace=wrap;html=1;arcSize=40;fontColor=#000000;fillColor=#ffffc0;strokeColor=#ff0000;" vertex="1" parent="r1D-2E0lFHsrmDZQRphq-5">
          <mxGeometry x="80" y="70" width="120" height="40" as="geometry" />
        </mxCell>
        <mxCell id="r1D-2E0lFHsrmDZQRphq-7" value="" style="edgeStyle=orthogonalEdgeStyle;html=1;verticalAlign=bottom;endArrow=open;endSize=8;strokeColor=#ff0000;rounded=0;" edge="1" parent="r1D-2E0lFHsrmDZQRphq-5" source="r1D-2E0lFHsrmDZQRphq-6">
          <mxGeometry relative="1" as="geometry">
            <mxPoint x="140" y="170" as="targetPoint" />
          </mxGeometry>
        </mxCell>
        <mxCell id="r1D-2E0lFHsrmDZQRphq-21" style="edgeStyle=orthogonalEdgeStyle;rounded=0;orthogonalLoop=1;jettySize=auto;html=1;exitX=0.5;exitY=1;exitDx=0;exitDy=0;strokeColor=#FF3737;" edge="1" parent="r1D-2E0lFHsrmDZQRphq-5" source="r1D-2E0lFHsrmDZQRphq-8" target="r1D-2E0lFHsrmDZQRphq-19">
          <mxGeometry relative="1" as="geometry" />
        </mxCell>
        <mxCell id="r1D-2E0lFHsrmDZQRphq-8" value="Solve the problem" style="rounded=1;whiteSpace=wrap;html=1;arcSize=40;fontColor=#000000;fillColor=#ffffc0;strokeColor=#ff0000;" vertex="1" parent="r1D-2E0lFHsrmDZQRphq-5">
          <mxGeometry x="80" y="172" width="120" height="40" as="geometry" />
        </mxCell>
        <mxCell id="r1D-2E0lFHsrmDZQRphq-19" value="Send solution to messaging platform" style="rounded=1;whiteSpace=wrap;html=1;arcSize=40;fontColor=#000000;fillColor=#ffffc0;strokeColor=#ff0000;" vertex="1" parent="r1D-2E0lFHsrmDZQRphq-5">
          <mxGeometry x="80" y="250" width="120" height="40" as="geometry" />
        </mxCell>
        <mxCell id="r1D-2E0lFHsrmDZQRphq-13" style="edgeStyle=orthogonalEdgeStyle;rounded=0;orthogonalLoop=1;jettySize=auto;html=1;exitX=1;exitY=0.5;exitDx=0;exitDy=0;entryX=0;entryY=0.5;entryDx=0;entryDy=0;fillColor=#FF3333;strokeColor=#FF3737;" edge="1" parent="1" source="5mifilfR7spXnIjcyNQS-47" target="5mifilfR7spXnIjcyNQS-49">
          <mxGeometry relative="1" as="geometry" />
        </mxCell>
        <mxCell id="r1D-2E0lFHsrmDZQRphq-15" style="edgeStyle=orthogonalEdgeStyle;rounded=0;orthogonalLoop=1;jettySize=auto;html=1;exitX=0;exitY=0.5;exitDx=0;exitDy=0;entryX=0.25;entryY=0;entryDx=0;entryDy=0;strokeColor=#FF3737;" edge="1" parent="1" source="r1D-2E0lFHsrmDZQRphq-12" target="5mifilfR7spXnIjcyNQS-53">
          <mxGeometry relative="1" as="geometry" />
        </mxCell>
        <mxCell id="r1D-2E0lFHsrmDZQRphq-16" value="Yes" style="edgeLabel;html=1;align=center;verticalAlign=middle;resizable=0;points=[];" vertex="1" connectable="0" parent="r1D-2E0lFHsrmDZQRphq-15">
          <mxGeometry x="-0.2504" y="-2" relative="1" as="geometry">
            <mxPoint x="1" as="offset" />
          </mxGeometry>
        </mxCell>
        <mxCell id="r1D-2E0lFHsrmDZQRphq-17" style="edgeStyle=orthogonalEdgeStyle;rounded=0;orthogonalLoop=1;jettySize=auto;html=1;exitX=1;exitY=0.5;exitDx=0;exitDy=0;entryX=0;entryY=0.5;entryDx=0;entryDy=0;strokeColor=#FF3737;" edge="1" parent="1" source="r1D-2E0lFHsrmDZQRphq-12" target="r1D-2E0lFHsrmDZQRphq-6">
          <mxGeometry relative="1" as="geometry" />
        </mxCell>
        <mxCell id="r1D-2E0lFHsrmDZQRphq-18" value="No" style="edgeLabel;html=1;align=center;verticalAlign=middle;resizable=0;points=[];" vertex="1" connectable="0" parent="r1D-2E0lFHsrmDZQRphq-17">
          <mxGeometry x="-0.6931" y="-2" relative="1" as="geometry">
            <mxPoint x="5" y="13" as="offset" />
          </mxGeometry>
        </mxCell>
      </root>
    </mxGraphModel>
  </diagram>
</mxfile>
